<svg viewBox="0 0 120 87" version="1.1" xmlns="http://www.w3.org/2000/svg">
<g id="#305b6bf8">
<path fill="#305b6b" opacity="0.97" d=" M 91.39 0.00 L 120.00 0.00 L 120.00 87.00 L 0.31 87.00 C -0.12 68.06 0.24 49.11 0.13 30.17 L 2.19 30.16 C 2.21 48.44 2.17 66.72 2.21 85.01 C 40.76 84.99 79.32 84.88 117.87 85.07 C 117.95 57.42 117.87 29.77 117.91 2.13 C 109.12 2.11 100.32 2.12 91.52 2.12 C 91.49 1.59 91.42 0.53 91.39 0.00 Z" />
<path fill="#305b6b" opacity="0.97" d=" M 33.93 20.75 C 35.22 20.75 36.50 20.75 37.78 20.74 C 37.75 27.19 37.75 33.65 37.77 40.10 C 44.54 40.13 51.31 40.04 58.07 40.15 C 58.07 40.99 58.07 42.65 58.07 43.48 C 50.03 43.54 41.98 43.54 33.93 43.48 C 33.93 35.90 33.93 28.33 33.93 20.75 Z" />
<path fill="#305b6b" opacity="0.97" d=" M 44.08 20.74 C 45.35 20.74 46.61 20.75 47.88 20.75 C 47.85 26.67 47.83 32.59 47.90 38.51 C 46.62 38.51 45.34 38.51 44.06 38.52 C 44.13 32.59 44.11 26.67 44.08 20.74 Z" />
<path fill="#305b6b" opacity="0.97" d=" M 54.13 20.75 C 55.44 20.75 56.76 20.75 58.07 20.75 C 58.07 26.67 58.07 32.59 58.07 38.52 C 56.75 38.51 55.43 38.51 54.11 38.51 C 54.18 32.59 54.16 26.67 54.13 20.75 Z" />
<path fill="#305b6b" opacity="0.97" d=" M 67.50 20.74 C 71.72 20.73 75.94 20.73 80.16 20.74 C 80.13 21.56 80.09 23.19 80.06 24.01 C 75.88 24.13 71.70 24.07 67.52 23.91 C 67.51 23.12 67.51 21.54 67.50 20.74 Z" />
<path fill="#305b6b" opacity="0.97" d=" M 96.58 20.76 C 97.55 20.76 99.48 20.76 100.45 20.76 C 100.43 28.33 100.42 35.90 100.46 43.47 C 99.49 43.48 97.55 43.48 96.57 43.48 C 96.61 35.91 96.59 28.33 96.58 20.76 Z" />
<path fill="#305b6b" opacity="0.97" d=" M 86.53 31.05 C 86.71 26.65 90.55 23.79 94.52 22.87 C 94.69 23.64 95.02 25.17 95.19 25.93 C 92.55 26.85 89.90 28.86 90.34 32.02 C 89.85 35.21 92.34 37.52 95.18 38.32 C 95.05 39.04 94.79 40.48 94.66 41.20 C 89.65 40.76 85.72 36.11 86.53 31.05 Z" />
<path fill="#305b6b" opacity="0.97" d=" M 102.48 22.88 C 106.81 23.78 110.70 27.32 110.52 32.01 C 110.84 36.81 106.92 40.74 102.32 41.27 C 102.20 40.52 101.97 39.02 101.86 38.27 C 104.65 37.46 107.26 35.18 106.75 31.98 C 107.19 28.82 104.38 26.89 101.80 25.93 C 101.97 25.17 102.31 23.64 102.48 22.88 Z" />
<path fill="#305b6b" opacity="0.97" d=" M 67.50 25.55 C 68.48 25.56 70.44 25.56 71.42 25.56 C 71.41 26.99 71.40 28.43 71.39 29.86 C 74.30 29.88 77.21 29.88 80.12 29.89 C 80.12 30.69 80.11 32.30 80.11 33.10 C 77.21 33.11 74.30 33.11 71.40 33.12 C 71.41 36.58 71.40 40.04 71.39 43.51 C 70.42 43.51 68.47 43.50 67.50 43.50 C 67.53 37.52 67.52 31.54 67.50 25.55 Z" />
<path fill="#305b6b" opacity="0.97" d=" M 73.03 40.26 C 75.79 40.25 78.56 40.25 81.32 40.21 C 81.35 41.03 81.42 42.68 81.45 43.51 C 78.61 43.52 75.76 43.52 72.92 43.49 C 72.95 42.68 73.00 41.07 73.03 40.26 Z" />
<path fill="#305b6b" opacity="0.97" d=" M 20.37 52.17 C 21.61 52.17 22.86 52.17 24.10 52.17 C 24.19 59.73 24.14 67.29 24.15 74.85 C 22.89 74.85 21.63 74.84 20.37 74.84 C 20.38 67.28 20.38 59.73 20.37 52.17 Z" />
<path fill="#305b6b" opacity="0.97" d=" M 25.79 52.15 C 29.62 52.16 33.44 52.15 37.27 52.16 C 37.28 59.73 37.28 67.30 37.27 74.86 C 35.97 74.85 34.67 74.84 33.38 74.84 C 33.39 68.40 33.38 61.96 33.39 55.53 C 30.89 55.52 28.39 55.53 25.89 55.57 C 25.87 54.43 25.84 53.29 25.79 52.15 Z" />
<path fill="#305b6b" opacity="0.97" d=" M 44.93 66.94 C 43.14 60.63 46.72 52.50 53.78 51.81 C 53.91 52.59 54.16 54.16 54.28 54.94 C 48.36 56.88 46.63 64.98 50.52 69.58 C 51.82 71.27 53.98 71.72 55.90 72.34 C 55.95 73.17 56.05 74.84 56.10 75.68 C 50.92 75.71 45.83 72.20 44.93 66.94 Z" />
<path fill="#305b6b" opacity="0.97" d=" M 56.06 51.43 C 59.07 51.65 62.26 52.32 64.33 54.70 C 70.64 61.06 67.66 74.18 58.22 75.55 C 58.08 74.71 57.80 73.04 57.66 72.20 C 63.53 70.44 65.56 62.70 62.04 57.95 C 60.76 55.92 58.33 55.35 56.19 54.72 C 56.16 53.90 56.10 52.26 56.06 51.43 Z" />
<path fill="#305b6b" opacity="0.97" d=" M 74.94 52.20 C 78.82 52.42 83.11 51.30 86.66 53.28 C 90.79 55.64 90.71 62.35 86.73 64.79 C 84.78 66.05 82.39 66.04 80.16 65.97 C 80.24 65.29 80.41 63.91 80.49 63.23 C 82.07 62.56 84.31 62.95 85.37 61.36 C 86.17 59.37 86.15 56.05 83.57 55.48 C 80.71 55.05 77.79 55.28 74.91 55.22 C 74.92 54.47 74.94 52.96 74.94 52.20 Z" />
<path fill="#305b6b" opacity="0.97" d=" M 92.70 52.16 C 98.63 52.15 104.55 52.17 110.47 52.15 C 110.50 52.98 110.55 54.66 110.57 55.50 C 104.59 55.55 98.62 55.54 92.64 55.50 C 92.66 54.67 92.69 52.99 92.70 52.16 Z" />
<path fill="#305b6b" opacity="0.97" d=" M 75.06 56.89 C 76.31 56.90 77.57 56.91 78.82 56.93 C 78.86 62.90 78.83 68.88 78.85 74.85 C 77.54 74.84 76.23 74.82 74.92 74.81 C 74.98 68.83 74.78 62.86 75.06 56.89 Z" />
<path fill="#305b6b" opacity="0.97" d=" M 99.64 57.13 C 100.94 57.14 102.24 57.15 103.54 57.16 C 103.53 63.05 103.53 68.94 103.54 74.84 C 102.24 74.85 100.94 74.85 99.64 74.86 C 99.63 68.95 99.63 63.04 99.64 57.13 Z" />
</g>
</svg>
